<?xml version="1.0" standalone="no"?>
<!DOCTYPE svg PUBLIC "-//W3C//DTD SVG 20010904//EN"
 "http://www.w3.org/TR/2001/REC-SVG-20010904/DTD/svg10.dtd">
<svg version="1.0" xmlns="http://www.w3.org/2000/svg"
 width="1200.000000pt" height="1200.000000pt" viewBox="0 0 1200.000000 1200.000000"
 preserveAspectRatio="xMidYMid meet">
<metadata>
Created by potrace 1.14, written by Peter Selinger 2001-2017
</metadata>
<g transform="translate(0.000000,1200.000000) scale(0.100000,-0.100000)"
fill="#000000" stroke="none">
<path d="M2610 7783 c-47 -8 -87 -18 -90 -22 -4 -6 -88 -29 -130 -36 -35 -5
-198 -70 -194 -77 5 -7 1 -8 -21 -8 -3 0 -29 -12 -58 -27 -28 -15 -54 -27 -57
-28 -11 -2 -56 -28 -70 -41 -26 -24 -152 -104 -163 -104 -6 0 -8 -3 -4 -6 3
-4 -17 -25 -46 -47 -111 -87 -276 -270 -341 -380 -20 -34 -36 -57 -36 -52 0 5
-23 -34 -50 -88 -28 -54 -50 -105 -50 -113 0 -8 -4 -13 -9 -10 -13 8 -101
-265 -101 -316 0 -17 -3 -19 -9 -10 -8 13 -13 -9 -28 -113 -3 -22 -9 -59 -13
-83 -8 -43 -6 -373 2 -447 10 -87 31 -194 37 -190 4 2 13 -22 20 -53 23 -102
71 -239 92 -266 11 -14 18 -26 15 -26 -10 0 76 -164 98 -187 12 -12 21 -26 21
-30 0 -12 63 -103 95 -138 15 -16 44 -52 64 -78 20 -27 36 -45 36 -41 0 4 26
-19 59 -52 63 -64 161 -153 161 -146 0 2 17 -10 37 -26 21 -16 53 -37 72 -47
19 -9 46 -28 60 -41 14 -13 29 -25 33 -25 18 -3 26 -6 76 -32 28 -15 52 -24
52 -20 0 5 6 1 13 -8 17 -22 224 -94 322 -113 6 -1 19 -7 30 -13 72 -38 616
-53 717 -18 7 2 31 7 53 10 21 3 42 9 45 14 3 4 23 11 45 15 70 13 285 88 279
97 -4 8 -1 9 21 9 3 0 29 12 58 27 28 15 54 27 57 28 13 2 57 30 77 49 12 12
26 21 30 21 10 1 62 35 87 57 11 10 23 18 26 18 9 0 98 79 162 144 32 32 58
54 58 50 0 -5 12 9 27 31 15 22 40 53 57 70 32 32 110 144 111 158 0 4 9 18
20 30 24 26 58 77 51 77 -3 0 8 24 24 54 17 30 30 61 30 70 0 9 4 16 9 16 12
0 44 86 79 209 14 53 29 98 33 101 4 3 10 23 13 45 4 22 9 54 12 70 13 73 15
100 18 265 4 205 -9 360 -39 445 -13 37 -35 117 -39 140 -7 39 -71 203 -78
199 -4 -3 -8 1 -8 8 0 22 -81 181 -104 205 -12 12 -21 26 -21 30 -1 15 -44 76
-101 142 -17 20 -45 56 -63 81 -18 25 -35 45 -39 44 -4 0 -22 15 -41 33 -19
18 -31 33 -27 33 5 0 -24 24 -62 53 -39 28 -69 56 -69 62 1 5 -2 9 -8 10 -5 0
-30 14 -55 30 -25 17 -57 37 -72 44 -16 8 -28 18 -28 22 0 7 -55 41 -70 44 -3
1 -29 13 -57 28 -29 15 -53 25 -53 21 0 -3 -12 4 -27 15 -27 22 -218 87 -285
98 -21 3 -38 9 -38 13 0 4 -21 11 -47 15 -27 5 -55 10 -63 13 -8 2 -134 6
-280 8 -207 2 -284 0 -350 -13z"/>
<path d="M7345 6632 c-11 -4 -29 -12 -40 -19 -20 -11 -20 -23 -22 -603 l-1
-592 21 -21 c12 -12 21 -25 20 -29 -2 -5 13 -8 32 -8 24 0 45 8 63 25 l27 25
5 288 5 289 29 41 c29 43 94 82 135 82 45 0 106 -24 137 -55 60 -60 67 -102
66 -398 l0 -238 25 -30 c41 -48 98 -36 132 28 14 28 15 483 1 572 -6 35 -19
80 -30 100 -19 36 -110 133 -110 116 0 -5 -6 -2 -12 7 -18 23 -100 48 -154 48
-53 0 -134 -19 -134 -31 0 -5 -6 -6 -13 -3 -7 2 -24 -4 -37 -16 -13 -11 -27
-20 -32 -20 -4 0 -8 85 -8 190 0 208 -5 233 -53 250 -16 5 -30 10 -31 9 -1 -1
-10 -4 -21 -7z"/>
<path d="M11264 6633 c-12 -2 -30 -13 -40 -25 -17 -18 -19 -42 -22 -221 -1
-110 -4 -202 -6 -204 -2 -2 -12 4 -22 14 -9 10 -20 18 -23 19 -3 0 -28 11 -55
23 -45 21 -83 26 -181 21 -32 -2 -105 -31 -105 -41 0 -6 -4 -8 -9 -4 -6 3 -36
-20 -68 -52 -57 -57 -113 -152 -113 -193 0 -10 -5 -22 -10 -25 -6 -4 -8 -11
-5 -16 4 -5 3 -14 -1 -21 -9 -14 -11 -168 -3 -174 4 -2 9 -22 13 -45 9 -55 50
-140 85 -178 16 -17 27 -31 24 -31 -16 0 80 -68 118 -84 24 -10 52 -22 61 -27
23 -12 148 -12 148 0 0 5 12 12 28 15 37 10 82 30 82 37 0 4 9 9 20 12 13 3
21 -1 25 -13 13 -40 41 -60 85 -60 24 0 41 3 38 6 -4 3 7 18 23 33 l29 28 0
566 c0 519 -1 568 -17 596 -16 27 -53 53 -71 50 -4 -1 -17 -4 -28 -6z m-176
-555 c94 -57 137 -173 121 -320 -16 -139 -97 -225 -215 -229 -89 -3 -166 53
-194 144 -8 23 -17 47 -21 52 -3 6 -5 21 -3 34 3 13 0 29 -6 36 -5 6 -7 15 -3
18 3 4 7 24 8 44 3 54 15 91 43 143 28 50 46 70 61 70 6 0 11 4 11 9 0 14 82
29 125 24 22 -3 55 -14 73 -25z"/>
<path d="M4980 6533 c-59 -24 -74 -89 -29 -129 16 -15 40 -18 152 -18 l132 -1
1 -481 1 -482 24 -30 c34 -43 86 -44 121 -2 l25 30 1 453 c0 248 1 466 1 482
l1 31 130 -1 c72 0 130 3 130 7 0 4 7 8 15 8 9 0 21 12 27 28 16 40 18 52 5
52 -5 0 -8 3 -4 6 9 9 -24 40 -53 50 -41 13 -647 11 -680 -3z"/>
<path d="M8265 6537 c-8 -4 -15 -5 -15 -2 0 3 -14 -7 -30 -22 -17 -15 -28 -33
-26 -40 3 -7 1 -13 -3 -13 -5 0 -8 -235 -7 -524 l1 -524 30 -26 c40 -35 81
-34 111 2 24 27 24 30 24 258 l0 231 216 0 c200 0 217 1 242 20 15 11 29 28
30 38 5 23 -7 85 -16 84 -4 -1 -10 0 -14 1 -5 1 -12 4 -18 5 -5 1 -11 4 -12 5
-2 2 -97 3 -213 4 l-210 2 0 175 0 174 220 2 c121 0 229 3 239 5 27 6 56 46
56 77 -1 35 -18 56 -55 66 -40 11 -531 13 -550 2z"/>
<path d="M5979 6266 c-2 -2 -22 -7 -43 -10 -62 -10 -86 -18 -86 -27 0 -5 -4
-8 -9 -6 -5 1 -19 -5 -32 -13 -35 -23 -105 -90 -95 -90 6 0 3 -6 -6 -12 -15
-13 -34 -46 -56 -98 -33 -77 -41 -234 -18 -330 18 -73 42 -130 56 -130 6 0 9
-4 6 -9 -9 -14 84 -106 129 -129 22 -11 55 -23 72 -27 18 -3 35 -11 38 -16 8
-11 175 -12 175 0 0 4 15 11 34 14 40 6 146 56 146 69 0 4 6 8 13 8 25 0 67
70 67 114 0 35 -22 56 -60 58 -27 1 -48 -9 -90 -40 -76 -58 -170 -77 -262 -52
-27 7 -48 16 -48 21 0 5 -5 9 -11 9 -30 0 -82 81 -98 149 l-9 41 62 0 c33 1
156 1 273 1 211 0 211 0 238 25 25 23 27 29 24 107 -2 45 -6 89 -10 97 -3 8
-16 37 -28 63 -20 45 -119 163 -128 153 -3 -2 -13 3 -24 12 -11 9 -23 17 -27
17 -4 0 -12 4 -18 8 -19 11 -166 31 -175 23z m82 -167 c36 -8 62 -22 88 -48
30 -29 52 -62 52 -78 0 -2 4 -16 9 -33 l9 -30 -210 0 c-169 0 -209 3 -209 14
0 22 23 80 37 94 7 7 13 17 13 21 0 11 78 53 114 62 44 10 40 10 97 -2z"/>
<path d="M6813 6263 c-24 -2 -43 -7 -43 -11 0 -4 -12 -8 -26 -9 -15 0 -29 -5
-33 -10 -3 -4 -13 -9 -21 -11 -26 -6 -99 -72 -131 -118 -53 -78 -74 -135 -85
-234 -2 -25 -6 -55 -9 -67 -2 -13 1 -23 6 -23 5 0 8 -16 6 -35 -2 -19 -2 -37
1 -40 3 -3 8 -16 10 -28 2 -12 5 -27 6 -33 5 -31 86 -151 121 -182 46 -40 129
-82 163 -82 13 0 20 -4 17 -10 -4 -6 27 -10 85 -10 58 0 89 4 85 10 -3 6 2 10
12 10 52 1 177 88 166 116 -3 8 -1 14 5 14 11 0 10 11 -2 48 -11 34 -60 52
-102 39 -19 -6 -34 -14 -34 -18 0 -17 -76 -50 -123 -53 -88 -6 -158 36 -199
119 -17 35 -23 52 -31 90 -2 6 -5 15 -8 20 -9 17 -1 116 14 175 7 26 26 70 37
83 6 6 18 21 28 32 37 44 75 59 143 60 53 0 72 -5 101 -25 20 -13 35 -27 33
-30 -6 -10 48 -36 70 -35 35 2 63 15 70 33 13 30 12 72 -2 83 -7 7 -13 17 -13
24 0 6 -9 20 -20 30 -11 10 -20 14 -20 9 0 -5 -4 -4 -8 2 -15 24 -84 54 -144
64 -35 5 -67 9 -73 8 -5 -1 -29 -3 -52 -5z"/>
<path d="M9230 6263 c-48 -7 -145 -46 -157 -62 -7 -9 -13 -13 -13 -9 0 10 -60
-49 -60 -59 0 -5 -11 -21 -25 -36 -14 -15 -23 -27 -21 -27 3 0 -3 -16 -14 -35
-36 -65 -47 -152 -40 -317 1 -16 4 -28 8 -28 4 0 8 -10 8 -22 3 -35 9 -55 22
-70 6 -8 9 -18 5 -21 -3 -4 -1 -7 6 -7 7 0 9 -4 6 -10 -3 -5 -2 -10 4 -10 5 0
12 -8 15 -18 7 -22 66 -90 66 -76 0 5 5 1 11 -8 11 -20 82 -55 129 -65 17 -3
30 -9 30 -14 0 -5 41 -9 90 -9 50 0 90 4 90 9 0 5 15 12 33 15 100 19 230 120
218 170 -1 5 4 13 11 17 10 6 10 9 1 9 -7 0 -10 6 -7 14 3 8 -3 19 -13 24 -28
14 -83 23 -83 12 0 -5 -8 -11 -17 -14 -10 -3 -31 -17 -47 -31 -57 -49 -190
-71 -256 -43 -35 15 -118 68 -107 68 4 0 -5 17 -19 37 -13 20 -22 43 -20 50 3
7 1 13 -4 13 -6 0 -10 11 -10 25 0 29 -34 26 331 26 197 0 207 1 236 22 17 12
29 30 27 39 -1 10 2 20 7 23 4 3 5 16 0 28 -5 12 -7 37 -6 55 1 18 -2 35 -7
38 -4 3 -8 16 -8 29 0 13 -4 25 -10 27 -5 2 -11 15 -12 31 -1 15 -5 27 -9 27
-4 0 -21 21 -38 48 -17 26 -31 43 -31 39 0 -5 -19 7 -41 27 -23 19 -63 42 -88
50 -50 16 -151 26 -191 19z m163 -186 c34 -19 66 -55 68 -74 0 -5 7 -16 16
-25 8 -9 12 -22 8 -27 -3 -6 -2 -11 3 -11 5 0 9 -7 9 -15 0 -13 -31 -15 -214
-15 -183 0 -213 2 -213 15 0 8 5 15 11 15 5 0 7 4 4 10 -16 26 80 134 127 144
13 3 32 7 43 9 35 7 99 -5 138 -26z"/>
<path d="M10069 6260 c-26 -4 -57 -14 -70 -21 -13 -7 -25 -10 -26 -8 -1 2 -10
-3 -20 -11 -10 -9 -22 -16 -26 -17 -13 -3 -101 -93 -91 -93 5 0 1 -5 -9 -11
-9 -6 -15 -14 -12 -19 3 -4 -2 -10 -10 -14 -8 -3 -15 -14 -15 -25 0 -11 -4
-22 -9 -25 -18 -12 -34 -144 -29 -242 6 -105 24 -173 62 -229 33 -48 98 -115
107 -110 4 3 9 -1 12 -9 3 -8 27 -21 54 -31 26 -9 56 -21 65 -26 23 -12 188
-12 188 0 0 5 17 12 38 16 39 7 132 53 167 83 25 20 55 82 55 111 0 27 -29 56
-55 55 -30 -2 -75 -15 -75 -23 0 -4 -25 -22 -55 -40 -105 -64 -243 -53 -320
24 -39 40 -87 146 -73 160 3 4 127 6 275 6 257 0 271 0 291 20 12 11 22 26 22
34 0 8 4 15 8 15 22 0 -9 163 -45 233 -27 53 -102 139 -115 131 -4 -3 -8 -1
-8 4 0 18 -77 50 -148 61 -39 6 -74 10 -79 10 -4 -1 -29 -5 -54 -9z m134 -166
c48 -8 115 -71 124 -114 3 -17 9 -33 14 -36 4 -2 6 -11 2 -19 -4 -13 -39 -15
-210 -15 l-206 0 6 35 c3 19 20 55 38 80 30 42 67 64 134 79 20 4 26 3 98 -10z"/>
<path d="M5443 5060 c-18 -8 -23 -17 -23 -49 0 -30 -4 -40 -20 -44 -11 -3 -20
-12 -20 -21 0 -9 8 -16 20 -16 19 0 20 -7 20 -95 0 -88 1 -95 20 -95 19 0 20
7 20 94 0 90 1 95 23 98 29 4 29 32 -1 36 -29 4 -27 45 3 50 33 7 47 22 34 38
-13 16 -43 17 -76 4z"/>
<path d="M7862 5058 c-14 -14 -17 -285 -3 -307 5 -8 16 -11 25 -8 13 5 16 21
16 74 0 97 33 139 73 95 11 -12 17 -41 19 -92 3 -67 5 -75 23 -75 18 0 20 8
23 65 6 119 -27 169 -102 157 l-35 -6 -3 51 c-3 53 -15 67 -36 46z"/>
<path d="M10281 5056 c-8 -9 -11 -59 -9 -162 3 -141 4 -149 23 -149 19 0 20 7
20 159 0 159 -6 186 -34 152z"/>
<path d="M4797 5033 c-10 -9 -8 -266 2 -281 5 -9 30 -12 87 -10 71 3 79 5 79
23 0 18 -8 20 -62 23 l-63 3 0 124 c0 115 -2 125 -18 125 -10 0 -22 -3 -25 -7z"/>
<path d="M4992 4993 c3 -40 6 -48 23 -48 17 0 20 7 20 45 0 39 -3 45 -23 48
-22 3 -23 1 -20 -45z"/>
<path d="M5073 5024 c-3 -8 -1 -20 5 -26 16 -16 47 -5 50 20 3 18 -1 22 -23
22 -14 0 -28 -7 -32 -16z"/>
<path d="M6523 5033 c-7 -3 -13 -17 -13 -33 0 -19 -6 -29 -20 -33 -11 -3 -20
-12 -20 -21 0 -9 8 -16 20 -16 18 0 20 -7 20 -79 0 -59 4 -84 16 -95 18 -19
45 -21 61 -5 14 14 6 39 -13 39 -11 0 -14 17 -14 70 0 56 3 70 15 70 8 0 15 9
15 20 0 11 -7 20 -15 20 -9 0 -15 9 -15 24 0 26 -19 46 -37 39z"/>
<path d="M6634 5025 c-4 -9 -2 -21 4 -27 16 -16 47 -5 47 17 0 26 -42 34 -51
10z"/>
<path d="M7347 5034 c-4 -4 -7 -20 -7 -36 0 -21 -5 -28 -20 -28 -13 0 -20 -7
-20 -20 0 -13 7 -20 20 -20 18 0 20 -7 20 -85 0 -81 1 -86 24 -97 31 -14 56
-4 56 22 0 13 -7 20 -20 20 -18 0 -20 7 -20 70 0 63 2 70 20 70 13 0 20 7 20
20 0 13 -7 20 -19 20 -15 0 -21 8 -23 32 -3 31 -17 45 -31 32z"/>
<path d="M10707 4973 c-4 -3 -7 -71 -7 -150 0 -144 0 -144 23 -141 17 2 23 10
25 39 3 33 5 35 32 31 47 -7 79 6 100 41 53 87 -17 210 -102 179 -17 -6 -30
-7 -34 -1 -6 11 -28 12 -37 2z m127 -65 c22 -31 20 -74 -4 -98 -24 -24 -29
-24 -58 -4 -42 29 -20 124 29 124 10 0 25 -10 33 -22z"/>
<path d="M11197 4969 c-62 -36 -60 -175 2 -209 27 -14 74 -13 90 3 10 10 11 9
5 -6 -8 -23 -49 -32 -80 -18 -36 16 -54 14 -54 -8 0 -43 83 -65 138 -37 41 21
54 69 50 188 l-3 93 -65 2 c-36 1 -73 -2 -83 -8z m93 -58 c26 -50 4 -111 -40
-111 -33 0 -50 23 -50 65 0 42 17 65 50 65 19 0 33 -7 40 -19z"/>
<path d="M5082 4858 c3 -105 4 -113 23 -113 19 0 20 7 20 110 0 107 -1 110
-23 113 -23 3 -23 3 -20 -110z"/>
<path d="M5174 4955 c-3 -6 -3 -56 -2 -111 3 -91 5 -99 23 -99 18 0 20 8 23
78 2 68 6 79 26 92 13 9 31 13 40 9 20 -8 25 -29 28 -114 3 -57 5 -65 23 -65
19 0 20 7 20 93 0 119 -11 132 -112 130 -39 -1 -67 -6 -69 -13z"/>
<path d="M5550 4933 c-29 -33 -32 -41 -27 -86 6 -70 40 -102 107 -102 67 0
101 32 107 102 5 45 2 53 -27 86 -29 33 -37 37 -80 37 -43 0 -51 -4 -80 -37z
m120 -23 c24 -24 26 -77 3 -102 -20 -22 -61 -23 -85 -1 -39 35 -10 123 42 123
11 0 29 -9 40 -20z"/>
<path d="M5772 4856 c3 -103 4 -111 23 -111 18 0 20 8 23 70 3 75 16 99 58
109 15 4 24 14 24 25 0 17 -7 19 -65 19 l-66 -1 3 -111z"/>
<path d="M5924 4955 c-3 -6 -3 -56 -2 -111 3 -91 5 -99 23 -99 18 0 20 8 23
82 3 84 15 109 45 97 13 -5 17 -24 19 -92 3 -79 5 -87 23 -87 18 0 21 8 25 80
5 84 12 105 35 105 24 0 35 -36 35 -114 0 -69 2 -76 20 -76 19 0 20 7 20 93 0
134 -1 135 -146 135 -79 -1 -117 -5 -120 -13z"/>
<path d="M6277 4944 c-49 -49 -48 -125 3 -175 29 -30 71 -38 100 -19 9 5 19 5
27 -2 7 -5 20 -8 28 -4 13 5 15 24 13 113 l-3 108 -71 3 c-65 2 -73 0 -97 -24z
m118 -68 c21 -61 -53 -115 -89 -64 -17 24 -21 65 -8 84 28 42 78 31 97 -20z"/>
<path d="M6640 4856 c0 -109 1 -116 20 -116 26 0 32 26 28 135 -3 85 -4 90
-25 93 -23 3 -23 2 -23 -112z"/>
<path d="M6749 4941 c-25 -25 -29 -37 -29 -81 0 -46 4 -56 34 -86 55 -55 136
-41 170 30 20 42 20 69 1 106 -21 41 -53 60 -103 60 -35 0 -49 -6 -73 -29z
m120 -37 c12 -15 21 -35 21 -46 0 -76 -94 -97 -119 -26 -26 74 52 131 98 72z"/>
<path d="M6970 4854 c0 -107 1 -114 20 -114 18 0 20 7 20 65 0 92 24 134 66
118 23 -9 34 -46 34 -119 0 -57 2 -64 20 -64 19 0 20 7 20 94 0 90 -1 96 -26
115 -20 16 -39 20 -90 19 l-64 -1 0 -113z"/>
<path d="M7471 4946 c-43 -45 -44 -137 -3 -178 38 -39 128 -31 156 14 16 26 0
33 -44 18 -45 -15 -90 -2 -90 25 0 12 14 15 69 15 78 0 86 7 70 64 -12 45 -42
66 -94 66 -31 0 -47 -6 -64 -24z m90 -26 c36 -20 23 -40 -26 -40 -50 0 -57 11
-23 34 27 19 24 19 49 6z"/>
<path d="M7694 4955 c-31 -21 -47 -69 -41 -118 11 -80 100 -125 158 -79 27 22
20 59 -9 47 -9 -4 -29 -10 -44 -12 -58 -10 -79 97 -24 126 20 11 28 10 49 -4
44 -29 68 9 25 39 -28 20 -87 21 -114 1z"/>
<path d="M8217 4952 c-36 -40 -18 -81 51 -116 41 -21 43 -46 3 -46 -17 0 -33
5 -36 10 -11 18 -45 11 -45 -9 0 -26 22 -42 67 -48 29 -4 44 0 66 17 46 36 32
87 -33 120 -44 22 -57 58 -17 45 54 -17 77 -18 77 -2 0 42 -101 64 -133 29z"/>
<path d="M8380 4883 c0 -106 14 -131 76 -140 33 -4 45 -1 67 18 23 20 29 35
34 90 7 84 -1 119 -27 119 -18 0 -20 -7 -20 -79 0 -85 -10 -105 -52 -99 -21 3
-23 9 -28 88 -5 79 -7 85 -27 88 -22 3 -23 1 -23 -85z"/>
<path d="M8602 4856 c3 -103 4 -111 23 -111 18 0 20 8 23 70 3 75 16 99 58
109 15 4 24 14 24 25 0 17 -7 19 -65 19 l-66 -1 3 -111z"/>
<path d="M8874 4955 c-4 -8 -4 -49 -2 -91 3 -69 6 -79 31 -100 31 -26 62 -30
101 -13 35 16 47 55 44 140 -3 66 -5 74 -23 74 -18 0 -20 -8 -23 -65 -3 -94
-8 -110 -35 -110 -38 0 -47 19 -47 102 0 72 -2 78 -20 78 -11 0 -23 -7 -26
-15z"/>
<path d="M9094 4955 c-3 -6 -3 -56 -2 -111 3 -91 5 -99 23 -99 18 0 21 8 25
78 4 63 9 82 24 93 23 16 26 17 46 4 11 -6 16 -33 20 -92 4 -75 7 -83 25 -83
18 0 20 8 23 88 3 81 1 89 -22 112 -21 21 -33 24 -91 23 -41 -1 -69 -6 -71
-13z"/>
<path d="M9357 4959 c-25 -15 -47 -63 -47 -104 0 -68 43 -115 106 -115 32 0
80 25 88 45 8 21 -21 32 -45 17 -27 -17 -64 -15 -82 6 -10 10 -17 21 -17 25 0
3 33 7 73 9 l72 3 3 31 c2 22 -5 40 -23 63 -22 26 -34 31 -68 31 -23 0 -50 -5
-60 -11z m81 -45 c34 -24 26 -34 -28 -34 -27 0 -50 4 -50 9 0 10 39 41 50 41
3 0 16 -7 28 -16z"/>
<path d="M9683 4962 c-16 -10 -30 -53 -26 -74 3 -10 27 -30 54 -44 27 -15 48
-32 46 -38 -5 -15 -47 -20 -60 -7 -14 14 -44 14 -52 1 -11 -18 42 -60 75 -60
92 0 117 95 35 134 -44 21 -62 44 -42 52 9 3 24 1 36 -5 11 -6 27 -11 35 -11
23 0 20 37 -3 50 -23 12 -81 13 -98 2z"/>
<path d="M9863 4955 c-13 -9 -28 -33 -34 -54 -17 -56 -4 -105 33 -136 27 -23
39 -26 75 -22 46 5 83 30 83 55 0 11 -7 13 -27 8 -72 -18 -84 -18 -103 -1 -11
10 -20 22 -20 26 0 5 33 9 73 11 l72 3 3 31 c2 22 -5 40 -23 63 -22 26 -34 31
-69 31 -23 0 -51 -7 -63 -15z m88 -44 c31 -25 22 -33 -37 -29 l-49 3 23 23
c27 27 33 27 63 3z"/>
<path d="M10057 4964 c-11 -11 -8 -137 3 -171 17 -47 72 -65 125 -41 33 15 47
64 43 148 -3 59 -5 65 -25 68 -22 3 -23 0 -23 -71 0 -95 -5 -107 -41 -107 -33
0 -38 11 -41 110 -2 49 -7 66 -18 68 -9 1 -19 0 -23 -4z"/>
<path d="M10385 4946 c-50 -50 -41 -162 15 -191 16 -8 41 -15 55 -15 33 0 81
24 89 45 8 21 -21 32 -45 17 -27 -17 -64 -15 -82 6 -10 10 -17 21 -17 25 0 3
33 7 73 9 l72 3 3 31 c2 22 -5 40 -23 63 -23 26 -34 31 -71 31 -34 0 -51 -6
-69 -24z m93 -32 c34 -24 26 -34 -28 -34 -27 0 -50 4 -50 9 0 10 39 41 50 41
3 0 16 -7 28 -16z"/>
<path d="M10957 4950 c-52 -41 -56 -140 -9 -183 24 -22 75 -32 99 -18 14 7 23
7 31 -1 6 -6 18 -8 27 -5 13 6 15 23 13 114 l-3 108 -66 2 c-54 2 -71 -1 -92
-17z m93 -40 c38 -38 15 -120 -34 -120 -29 0 -44 17 -52 58 -5 25 -1 36 19 56
31 31 41 32 67 6z"/>
<path d="M11411 4946 c-43 -45 -44 -137 -3 -178 38 -39 128 -31 156 14 16 26
0 33 -44 18 -45 -15 -90 -2 -90 25 0 12 14 15 69 15 78 0 86 7 70 64 -12 45
-42 66 -94 66 -31 0 -47 -6 -64 -24z m90 -26 c36 -20 23 -40 -26 -40 -50 0
-57 11 -23 34 27 19 24 19 49 6z"/>
</g>
</svg>
